<?xml version="1.0" encoding="UTF-8"?>
<svg width="32px" height="32px" viewBox="0 0 32 32" version="1.1" xmlns="http://www.w3.org/2000/svg">
    <title>Fitness Icon</title>
    <g stroke="none" stroke-width="1" fill="none" fill-rule="evenodd">
        <circle fill="#1E40AF" cx="16" cy="16" r="16"/>
        <path d="M24,15 L22,15 L22,13 C22,12.447 21.553,12 21,12 L19,12 L19,10 C19,9.447 18.553,9 18,9 L14,9 C13.447,9 13,9.447 13,10 L13,12 L11,12 C10.447,12 10,12.447 10,13 L10,15 L8,15 C7.447,15 7,15.447 7,16 C7,16.553 7.447,17 8,17 L10,17 L10,19 C10,19.553 10.447,20 11,20 L13,20 L13,22 C13,22.553 13.447,23 14,23 L18,23 C18.553,23 19,22.553 19,22 L19,20 L21,20 C21.553,20 22,19.553 22,19 L22,17 L24,17 C24.553,17 25,16.553 25,16 C25,15.447 24.553,15 24,15" fill="#FFFFFF"/>
    </g>
</svg>
